<mxfile host="app.diagrams.net" modified="2023-06-15T13:27:41.586Z" agent="Mozilla/5.0 (Windows NT 10.0; Win64; x64) AppleWebKit/537.36 (KHTML, like Gecko) Chrome/112.0.0.0 Safari/537.36" etag="4oC3w0cF7OzqIBthqz7x" version="21.3.7" type="github">
  <diagram name="第 1 页" id="blYJefQpO97ReCXueAZ_">
    <mxGraphModel dx="1461" dy="636" grid="1" gridSize="10" guides="1" tooltips="1" connect="1" arrows="1" fold="1" page="1" pageScale="1" pageWidth="827" pageHeight="1169" math="0" shadow="0">
      <root>
        <mxCell id="0" />
        <mxCell id="1" parent="0" />
        <mxCell id="uJlS_WGVxxjhcVMHavWD-7" style="edgeStyle=orthogonalEdgeStyle;rounded=0;orthogonalLoop=1;jettySize=auto;html=1;exitX=0.5;exitY=1;exitDx=0;exitDy=0;entryX=0.5;entryY=0;entryDx=0;entryDy=0;" edge="1" parent="1" source="uJlS_WGVxxjhcVMHavWD-1" target="uJlS_WGVxxjhcVMHavWD-2">
          <mxGeometry relative="1" as="geometry" />
        </mxCell>
        <mxCell id="uJlS_WGVxxjhcVMHavWD-1" value="初始化符号栈和字符栈, index = 0" style="rounded=0;whiteSpace=wrap;html=1;" vertex="1" parent="1">
          <mxGeometry x="120" y="80" width="120" height="40" as="geometry" />
        </mxCell>
        <mxCell id="uJlS_WGVxxjhcVMHavWD-8" style="edgeStyle=orthogonalEdgeStyle;rounded=0;orthogonalLoop=1;jettySize=auto;html=1;exitX=0.5;exitY=1;exitDx=0;exitDy=0;entryX=0.5;entryY=0;entryDx=0;entryDy=0;" edge="1" parent="1" source="uJlS_WGVxxjhcVMHavWD-2" target="uJlS_WGVxxjhcVMHavWD-4">
          <mxGeometry relative="1" as="geometry" />
        </mxCell>
        <mxCell id="uJlS_WGVxxjhcVMHavWD-2" value="#,0分别入栈" style="rounded=0;whiteSpace=wrap;html=1;" vertex="1" parent="1">
          <mxGeometry x="120" y="160" width="120" height="40" as="geometry" />
        </mxCell>
        <mxCell id="uJlS_WGVxxjhcVMHavWD-22" style="edgeStyle=orthogonalEdgeStyle;rounded=0;orthogonalLoop=1;jettySize=auto;html=1;exitX=1;exitY=0.5;exitDx=0;exitDy=0;entryX=0;entryY=0.5;entryDx=0;entryDy=0;" edge="1" parent="1" source="uJlS_WGVxxjhcVMHavWD-4" target="uJlS_WGVxxjhcVMHavWD-9">
          <mxGeometry relative="1" as="geometry" />
        </mxCell>
        <mxCell id="uJlS_WGVxxjhcVMHavWD-4" value="循环" style="rhombus;whiteSpace=wrap;html=1;" vertex="1" parent="1">
          <mxGeometry x="110" y="240" width="140" height="80" as="geometry" />
        </mxCell>
        <mxCell id="uJlS_WGVxxjhcVMHavWD-12" style="edgeStyle=orthogonalEdgeStyle;rounded=0;orthogonalLoop=1;jettySize=auto;html=1;exitX=0.5;exitY=1;exitDx=0;exitDy=0;entryX=0.5;entryY=0;entryDx=0;entryDy=0;" edge="1" parent="1" source="uJlS_WGVxxjhcVMHavWD-9" target="uJlS_WGVxxjhcVMHavWD-11">
          <mxGeometry relative="1" as="geometry" />
        </mxCell>
        <mxCell id="uJlS_WGVxxjhcVMHavWD-9" value="&lt;pre style=&quot;background-color: rgb(255, 255, 255); font-family: &amp;quot;JetBrains Mono&amp;quot;, monospace; font-size: 8.3pt;&quot;&gt;translationTable()&lt;/pre&gt;&lt;pre style=&quot;background-color: rgb(255, 255, 255); font-family: &amp;quot;JetBrains Mono&amp;quot;, monospace; font-size: 8.3pt;&quot;&gt;获取当前LR表的值&lt;/pre&gt;" style="rounded=0;whiteSpace=wrap;html=1;" vertex="1" parent="1">
          <mxGeometry x="280" y="260" width="120" height="40" as="geometry" />
        </mxCell>
        <mxCell id="uJlS_WGVxxjhcVMHavWD-15" value="Y" style="edgeStyle=orthogonalEdgeStyle;rounded=0;orthogonalLoop=1;jettySize=auto;html=1;exitX=1;exitY=0.5;exitDx=0;exitDy=0;entryX=0;entryY=0.5;entryDx=0;entryDy=0;" edge="1" parent="1" source="uJlS_WGVxxjhcVMHavWD-11" target="uJlS_WGVxxjhcVMHavWD-13">
          <mxGeometry relative="1" as="geometry" />
        </mxCell>
        <mxCell id="uJlS_WGVxxjhcVMHavWD-21" value="N" style="edgeStyle=orthogonalEdgeStyle;rounded=0;orthogonalLoop=1;jettySize=auto;html=1;exitX=0.5;exitY=1;exitDx=0;exitDy=0;entryX=0.5;entryY=0;entryDx=0;entryDy=0;" edge="1" parent="1" source="uJlS_WGVxxjhcVMHavWD-11" target="uJlS_WGVxxjhcVMHavWD-17">
          <mxGeometry relative="1" as="geometry" />
        </mxCell>
        <mxCell id="uJlS_WGVxxjhcVMHavWD-11" value="op[0] = &#39;a&#39;" style="rhombus;whiteSpace=wrap;html=1;" vertex="1" parent="1">
          <mxGeometry x="280" y="330" width="120" height="60" as="geometry" />
        </mxCell>
        <mxCell id="uJlS_WGVxxjhcVMHavWD-16" style="edgeStyle=orthogonalEdgeStyle;rounded=0;orthogonalLoop=1;jettySize=auto;html=1;exitX=1;exitY=0.5;exitDx=0;exitDy=0;entryX=0;entryY=0.5;entryDx=0;entryDy=0;" edge="1" parent="1" source="uJlS_WGVxxjhcVMHavWD-13" target="uJlS_WGVxxjhcVMHavWD-14">
          <mxGeometry relative="1" as="geometry" />
        </mxCell>
        <mxCell id="uJlS_WGVxxjhcVMHavWD-13" value="返回 true" style="rounded=0;whiteSpace=wrap;html=1;" vertex="1" parent="1">
          <mxGeometry x="440" y="340" width="120" height="40" as="geometry" />
        </mxCell>
        <mxCell id="uJlS_WGVxxjhcVMHavWD-14" value="结束" style="rounded=0;whiteSpace=wrap;html=1;" vertex="1" parent="1">
          <mxGeometry x="600" y="430" width="120" height="40" as="geometry" />
        </mxCell>
        <mxCell id="uJlS_WGVxxjhcVMHavWD-20" value="Y" style="edgeStyle=orthogonalEdgeStyle;rounded=0;orthogonalLoop=1;jettySize=auto;html=1;exitX=1;exitY=0.5;exitDx=0;exitDy=0;entryX=0;entryY=0.5;entryDx=0;entryDy=0;" edge="1" parent="1" source="uJlS_WGVxxjhcVMHavWD-17" target="uJlS_WGVxxjhcVMHavWD-18">
          <mxGeometry relative="1" as="geometry" />
        </mxCell>
        <mxCell id="uJlS_WGVxxjhcVMHavWD-31" value="N" style="edgeStyle=orthogonalEdgeStyle;rounded=0;orthogonalLoop=1;jettySize=auto;html=1;exitX=0.5;exitY=1;exitDx=0;exitDy=0;entryX=0.5;entryY=0;entryDx=0;entryDy=0;" edge="1" parent="1" source="uJlS_WGVxxjhcVMHavWD-17" target="uJlS_WGVxxjhcVMHavWD-23">
          <mxGeometry relative="1" as="geometry" />
        </mxCell>
        <mxCell id="uJlS_WGVxxjhcVMHavWD-17" value="op[0] = &#39;n&#39;" style="rhombus;whiteSpace=wrap;html=1;" vertex="1" parent="1">
          <mxGeometry x="280" y="420" width="120" height="60" as="geometry" />
        </mxCell>
        <mxCell id="uJlS_WGVxxjhcVMHavWD-19" style="edgeStyle=orthogonalEdgeStyle;rounded=0;orthogonalLoop=1;jettySize=auto;html=1;exitX=1;exitY=0.5;exitDx=0;exitDy=0;entryX=0;entryY=0.5;entryDx=0;entryDy=0;" edge="1" parent="1" source="uJlS_WGVxxjhcVMHavWD-18" target="uJlS_WGVxxjhcVMHavWD-14">
          <mxGeometry relative="1" as="geometry" />
        </mxCell>
        <mxCell id="uJlS_WGVxxjhcVMHavWD-18" value="返回 false" style="rounded=0;whiteSpace=wrap;html=1;" vertex="1" parent="1">
          <mxGeometry x="440" y="430" width="120" height="40" as="geometry" />
        </mxCell>
        <mxCell id="uJlS_WGVxxjhcVMHavWD-29" value="Y" style="edgeStyle=orthogonalEdgeStyle;rounded=0;orthogonalLoop=1;jettySize=auto;html=1;exitX=1;exitY=0.5;exitDx=0;exitDy=0;entryX=0;entryY=0.5;entryDx=0;entryDy=0;" edge="1" parent="1" source="uJlS_WGVxxjhcVMHavWD-23" target="uJlS_WGVxxjhcVMHavWD-27">
          <mxGeometry relative="1" as="geometry" />
        </mxCell>
        <mxCell id="uJlS_WGVxxjhcVMHavWD-32" style="edgeStyle=orthogonalEdgeStyle;rounded=0;orthogonalLoop=1;jettySize=auto;html=1;exitX=0.5;exitY=1;exitDx=0;exitDy=0;entryX=0.5;entryY=0;entryDx=0;entryDy=0;" edge="1" parent="1" source="uJlS_WGVxxjhcVMHavWD-23" target="uJlS_WGVxxjhcVMHavWD-24">
          <mxGeometry relative="1" as="geometry" />
        </mxCell>
        <mxCell id="uJlS_WGVxxjhcVMHavWD-23" value="op[0] = &#39;s&#39;" style="rhombus;whiteSpace=wrap;html=1;" vertex="1" parent="1">
          <mxGeometry x="280" y="510" width="120" height="60" as="geometry" />
        </mxCell>
        <mxCell id="uJlS_WGVxxjhcVMHavWD-35" value="Y" style="edgeStyle=orthogonalEdgeStyle;rounded=0;orthogonalLoop=1;jettySize=auto;html=1;exitX=1;exitY=0.5;exitDx=0;exitDy=0;entryX=0;entryY=0.5;entryDx=0;entryDy=0;" edge="1" parent="1" source="uJlS_WGVxxjhcVMHavWD-24" target="uJlS_WGVxxjhcVMHavWD-33">
          <mxGeometry relative="1" as="geometry" />
        </mxCell>
        <mxCell id="uJlS_WGVxxjhcVMHavWD-38" value="N" style="edgeStyle=orthogonalEdgeStyle;rounded=0;orthogonalLoop=1;jettySize=auto;html=1;exitX=0.5;exitY=1;exitDx=0;exitDy=0;entryX=0.5;entryY=1;entryDx=0;entryDy=0;" edge="1" parent="1" source="uJlS_WGVxxjhcVMHavWD-24" target="uJlS_WGVxxjhcVMHavWD-4">
          <mxGeometry relative="1" as="geometry" />
        </mxCell>
        <mxCell id="uJlS_WGVxxjhcVMHavWD-24" value="op[0] = &#39;r&#39;" style="rhombus;whiteSpace=wrap;html=1;" vertex="1" parent="1">
          <mxGeometry x="280" y="600" width="120" height="60" as="geometry" />
        </mxCell>
        <mxCell id="uJlS_WGVxxjhcVMHavWD-30" style="edgeStyle=orthogonalEdgeStyle;rounded=0;orthogonalLoop=1;jettySize=auto;html=1;exitX=1;exitY=0.5;exitDx=0;exitDy=0;entryX=0;entryY=0.5;entryDx=0;entryDy=0;" edge="1" parent="1" source="uJlS_WGVxxjhcVMHavWD-27" target="uJlS_WGVxxjhcVMHavWD-28">
          <mxGeometry relative="1" as="geometry" />
        </mxCell>
        <mxCell id="uJlS_WGVxxjhcVMHavWD-27" value="当前值入符号栈，查表后将状态入栈" style="rounded=0;whiteSpace=wrap;html=1;" vertex="1" parent="1">
          <mxGeometry x="440" y="520" width="120" height="40" as="geometry" />
        </mxCell>
        <mxCell id="uJlS_WGVxxjhcVMHavWD-37" style="edgeStyle=orthogonalEdgeStyle;rounded=0;orthogonalLoop=1;jettySize=auto;html=1;exitX=0.5;exitY=1;exitDx=0;exitDy=0;" edge="1" parent="1" source="uJlS_WGVxxjhcVMHavWD-28">
          <mxGeometry relative="1" as="geometry">
            <mxPoint x="340" y="580" as="targetPoint" />
            <Array as="points">
              <mxPoint x="660" y="580" />
            </Array>
          </mxGeometry>
        </mxCell>
        <mxCell id="uJlS_WGVxxjhcVMHavWD-28" value="index ++" style="rounded=0;whiteSpace=wrap;html=1;" vertex="1" parent="1">
          <mxGeometry x="600" y="520" width="120" height="40" as="geometry" />
        </mxCell>
        <mxCell id="uJlS_WGVxxjhcVMHavWD-36" style="edgeStyle=orthogonalEdgeStyle;rounded=0;orthogonalLoop=1;jettySize=auto;html=1;exitX=1;exitY=0.5;exitDx=0;exitDy=0;entryX=0;entryY=0.5;entryDx=0;entryDy=0;" edge="1" parent="1" source="uJlS_WGVxxjhcVMHavWD-33" target="uJlS_WGVxxjhcVMHavWD-34">
          <mxGeometry relative="1" as="geometry" />
        </mxCell>
        <mxCell id="uJlS_WGVxxjhcVMHavWD-33" value="找到对应表达式，将length(右部)个状态栈和字符栈出栈" style="rounded=0;whiteSpace=wrap;html=1;" vertex="1" parent="1">
          <mxGeometry x="440" y="610" width="120" height="40" as="geometry" />
        </mxCell>
        <mxCell id="uJlS_WGVxxjhcVMHavWD-39" style="edgeStyle=orthogonalEdgeStyle;rounded=0;orthogonalLoop=1;jettySize=auto;html=1;exitX=1;exitY=0.5;exitDx=0;exitDy=0;" edge="1" parent="1" source="uJlS_WGVxxjhcVMHavWD-34">
          <mxGeometry relative="1" as="geometry">
            <mxPoint x="340" y="680" as="targetPoint" />
            <Array as="points">
              <mxPoint x="740" y="630" />
              <mxPoint x="740" y="680" />
            </Array>
          </mxGeometry>
        </mxCell>
        <mxCell id="uJlS_WGVxxjhcVMHavWD-34" value="字符的左部入栈，根据GOTO表将状态入栈" style="rounded=0;whiteSpace=wrap;html=1;" vertex="1" parent="1">
          <mxGeometry x="600" y="610" width="120" height="40" as="geometry" />
        </mxCell>
      </root>
    </mxGraphModel>
  </diagram>
</mxfile>
